<svg xmlns="http://www.w3.org/2000/svg" viewBox="0 0 640 360" role="img" aria-labelledby="title desc">
  <title id="title">ROI e impacto en negocio</title>
  <desc id="desc">Grafico con barras ascendentes, una linea de crecimiento y un indicador de retorno de inversion.</desc>
  <rect width="640" height="360" fill="#f8fafc"/>
  <rect x="48" y="44" width="544" height="272" rx="24" fill="#ffffff" stroke="#d9e2ec" stroke-width="3"/>
  <path d="M104 266H536" stroke="#9fb3c8" stroke-width="4" stroke-linecap="round"/>
  <path d="M104 86V266" stroke="#9fb3c8" stroke-width="4" stroke-linecap="round"/>
  <rect x="142" y="206" width="52" height="60" rx="8" fill="#5bc0be"/>
  <rect x="238" y="176" width="52" height="90" rx="8" fill="#3a86ff"/>
  <rect x="334" y="136" width="52" height="130" rx="8" fill="#1c2541"/>
  <rect x="430" y="100" width="52" height="166" rx="8" fill="#0b132b"/>
  <path d="M152 184L264 150L360 112L470 72" fill="none" stroke="#ffb703" stroke-width="8" stroke-linecap="round" stroke-linejoin="round"/>
  <circle cx="152" cy="184" r="10" fill="#ffb703"/>
  <circle cx="264" cy="150" r="10" fill="#ffb703"/>
  <circle cx="360" cy="112" r="10" fill="#ffb703"/>
  <circle cx="470" cy="72" r="10" fill="#ffb703"/>
  <g transform="translate(386 174)">
    <rect width="138" height="58" rx="14" fill="#e0f7fa" stroke="#5bc0be" stroke-width="2"/>
    <text x="69" y="26" text-anchor="middle" font-family="Arial, sans-serif" font-size="18" font-weight="700" fill="#0b132b">ROI</text>
    <text x="69" y="45" text-anchor="middle" font-family="Arial, sans-serif" font-size="13" fill="#1c2541">impacto medible</text>
  </g>
</svg>
